<mxfile host="app.diagrams.net" modified="2022-01-12T02:51:40.018Z" agent="5.0 (Macintosh; Intel Mac OS X 10_15_7) AppleWebKit/537.36 (KHTML, like Gecko) Chrome/97.0.4692.71 Safari/537.36" etag="hw7NwjWB9NmUfdhzTERZ" version="16.2.4" type="github">
  <diagram id="C46EihjHqX5qRfAGSEHO" name="Page-1">
    <mxGraphModel dx="1904" dy="1021" grid="1" gridSize="10" guides="1" tooltips="1" connect="1" arrows="1" fold="1" page="1" pageScale="1" pageWidth="1169" pageHeight="827" math="0" shadow="0">
      <root>
        <mxCell id="0" />
        <mxCell id="1" parent="0" />
        <mxCell id="3d1nBrbwUyjpSrx7yAmw-16" value="" style="endArrow=none;html=1;rounded=0;" parent="1" target="3d1nBrbwUyjpSrx7yAmw-2" edge="1">
          <mxGeometry width="50" height="50" relative="1" as="geometry">
            <mxPoint x="606" y="450" as="sourcePoint" />
            <mxPoint x="407" y="360" as="targetPoint" />
          </mxGeometry>
        </mxCell>
        <mxCell id="3d1nBrbwUyjpSrx7yAmw-17" value="" style="endArrow=none;html=1;rounded=0;exitX=0.235;exitY=0.722;exitDx=0;exitDy=0;exitPerimeter=0;" parent="1" source="3d1nBrbwUyjpSrx7yAmw-6" edge="1">
          <mxGeometry width="50" height="50" relative="1" as="geometry">
            <mxPoint x="769.5171948752529" y="339.28523263654756" as="sourcePoint" />
            <mxPoint x="606" y="450" as="targetPoint" />
          </mxGeometry>
        </mxCell>
        <mxCell id="3d1nBrbwUyjpSrx7yAmw-1" value="모바일 청첩장 제작" style="rounded=1;whiteSpace=wrap;html=1;fillColor=#CC99FF;strokeColor=#9673a6;" parent="1" vertex="1">
          <mxGeometry x="546" y="40" width="120" height="60" as="geometry" />
        </mxCell>
        <mxCell id="3d1nBrbwUyjpSrx7yAmw-2" value="사진 O" style="rhombus;whiteSpace=wrap;html=1;fillColor=#dae8fc;strokeColor=#6c8ebf;" parent="1" vertex="1">
          <mxGeometry x="356" y="280" width="110" height="80" as="geometry" />
        </mxCell>
        <mxCell id="3d1nBrbwUyjpSrx7yAmw-3" value="" style="endArrow=classic;html=1;rounded=0;" parent="1" edge="1">
          <mxGeometry width="50" height="50" relative="1" as="geometry">
            <mxPoint x="668" y="320" as="sourcePoint" />
            <mxPoint x="738" y="320" as="targetPoint" />
          </mxGeometry>
        </mxCell>
        <mxCell id="3d1nBrbwUyjpSrx7yAmw-4" value="" style="endArrow=classic;html=1;rounded=0;" parent="1" edge="1">
          <mxGeometry width="50" height="50" relative="1" as="geometry">
            <mxPoint x="706" y="320" as="sourcePoint" />
            <mxPoint x="476" y="320" as="targetPoint" />
          </mxGeometry>
        </mxCell>
        <mxCell id="3d1nBrbwUyjpSrx7yAmw-5" value="스킨 선택" style="rounded=0;whiteSpace=wrap;html=1;fillColor=#FFCCE6;strokeColor=#b85450;" parent="1" vertex="1">
          <mxGeometry x="546" y="190" width="120" height="60" as="geometry" />
        </mxCell>
        <mxCell id="3d1nBrbwUyjpSrx7yAmw-6" value="사진 X" style="rhombus;whiteSpace=wrap;html=1;fillColor=#dae8fc;strokeColor=#6c8ebf;" parent="1" vertex="1">
          <mxGeometry x="746" y="280" width="110" height="80" as="geometry" />
        </mxCell>
        <mxCell id="3d1nBrbwUyjpSrx7yAmw-7" value="" style="endArrow=none;html=1;rounded=0;entryX=0.5;entryY=1;entryDx=0;entryDy=0;" parent="1" target="3d1nBrbwUyjpSrx7yAmw-5" edge="1">
          <mxGeometry width="50" height="50" relative="1" as="geometry">
            <mxPoint x="606" y="320" as="sourcePoint" />
            <mxPoint x="631" y="260" as="targetPoint" />
          </mxGeometry>
        </mxCell>
        <mxCell id="3d1nBrbwUyjpSrx7yAmw-8" value="" style="endArrow=none;html=1;rounded=0;" parent="1" edge="1">
          <mxGeometry width="50" height="50" relative="1" as="geometry">
            <mxPoint x="306" y="320" as="sourcePoint" />
            <mxPoint x="356" y="319.5" as="targetPoint" />
          </mxGeometry>
        </mxCell>
        <mxCell id="3d1nBrbwUyjpSrx7yAmw-9" value="" style="endArrow=classic;html=1;rounded=0;" parent="1" edge="1">
          <mxGeometry width="50" height="50" relative="1" as="geometry">
            <mxPoint x="306" y="320" as="sourcePoint" />
            <mxPoint x="246" y="320" as="targetPoint" />
          </mxGeometry>
        </mxCell>
        <mxCell id="3d1nBrbwUyjpSrx7yAmw-13" value="1장" style="edgeLabel;html=1;align=center;verticalAlign=middle;resizable=0;points=[];" parent="3d1nBrbwUyjpSrx7yAmw-9" vertex="1" connectable="0">
          <mxGeometry x="0.2" y="-1" relative="1" as="geometry">
            <mxPoint as="offset" />
          </mxGeometry>
        </mxCell>
        <mxCell id="3d1nBrbwUyjpSrx7yAmw-12" value="2장~3장" style="endArrow=classic;html=1;rounded=0;" parent="1" edge="1">
          <mxGeometry width="50" height="50" relative="1" as="geometry">
            <mxPoint x="306" y="320" as="sourcePoint" />
            <mxPoint x="306" y="380" as="targetPoint" />
          </mxGeometry>
        </mxCell>
        <mxCell id="3d1nBrbwUyjpSrx7yAmw-14" value="적용되는 효과없음" style="rounded=0;whiteSpace=wrap;html=1;fillColor=#CCE5FF;strokeColor=#6c8ebf;" parent="1" vertex="1">
          <mxGeometry x="116" y="300" width="120" height="40" as="geometry" />
        </mxCell>
        <mxCell id="3d1nBrbwUyjpSrx7yAmw-15" value="사진전환 효과 선택&lt;br&gt;미 선택시 페이드 기본선택" style="rounded=0;whiteSpace=wrap;html=1;fillColor=#CCE5FF;strokeColor=#6c8ebf;" parent="1" vertex="1">
          <mxGeometry x="236" y="387" width="140" height="40" as="geometry" />
        </mxCell>
        <mxCell id="3d1nBrbwUyjpSrx7yAmw-18" value="" style="endArrow=classic;html=1;rounded=0;" parent="1" edge="1">
          <mxGeometry width="50" height="50" relative="1" as="geometry">
            <mxPoint x="606" y="450" as="sourcePoint" />
            <mxPoint x="606.29" y="520" as="targetPoint" />
          </mxGeometry>
        </mxCell>
        <mxCell id="3d1nBrbwUyjpSrx7yAmw-19" value="신랑 신부 정보&lt;br&gt;예식 일시" style="rounded=0;whiteSpace=wrap;html=1;fillColor=#FFCCE6;strokeColor=#b85450;" parent="1" vertex="1">
          <mxGeometry x="546" y="537" width="120" height="60" as="geometry" />
        </mxCell>
        <mxCell id="3d1nBrbwUyjpSrx7yAmw-20" value="인사말" style="rhombus;whiteSpace=wrap;html=1;fillColor=#fff2cc;strokeColor=#d6b656;" parent="1" vertex="1">
          <mxGeometry x="551" y="679" width="110" height="80" as="geometry" />
        </mxCell>
        <mxCell id="3d1nBrbwUyjpSrx7yAmw-21" value="비디오" style="rhombus;whiteSpace=wrap;html=1;fillColor=#fff2cc;strokeColor=#d6b656;" parent="1" vertex="1">
          <mxGeometry x="551" y="821" width="110" height="80" as="geometry" />
        </mxCell>
        <mxCell id="3d1nBrbwUyjpSrx7yAmw-22" value="포토" style="rhombus;whiteSpace=wrap;html=1;fillColor=#fff2cc;strokeColor=#d6b656;" parent="1" vertex="1">
          <mxGeometry x="551" y="968" width="110" height="80" as="geometry" />
        </mxCell>
        <mxCell id="3d1nBrbwUyjpSrx7yAmw-23" value="오시는길" style="rhombus;whiteSpace=wrap;html=1;fillColor=#fff2cc;strokeColor=#d6b656;" parent="1" vertex="1">
          <mxGeometry x="551" y="1109" width="110" height="80" as="geometry" />
        </mxCell>
        <mxCell id="3d1nBrbwUyjpSrx7yAmw-24" value="네비게이션 설정" style="rhombus;whiteSpace=wrap;html=1;fillColor=#fff2cc;strokeColor=#d6b656;" parent="1" vertex="1">
          <mxGeometry x="551" y="1250" width="110" height="80" as="geometry" />
        </mxCell>
        <mxCell id="3d1nBrbwUyjpSrx7yAmw-25" value="알림사항" style="rhombus;whiteSpace=wrap;html=1;fillColor=#fff2cc;strokeColor=#d6b656;" parent="1" vertex="1">
          <mxGeometry x="551" y="1389" width="110" height="80" as="geometry" />
        </mxCell>
        <mxCell id="3d1nBrbwUyjpSrx7yAmw-26" value="축의금 계좌" style="rhombus;whiteSpace=wrap;html=1;fillColor=#fff2cc;strokeColor=#d6b656;" parent="1" vertex="1">
          <mxGeometry x="551" y="1528" width="110" height="80" as="geometry" />
        </mxCell>
        <mxCell id="3d1nBrbwUyjpSrx7yAmw-27" value="축하메시지" style="rhombus;whiteSpace=wrap;html=1;fillColor=#fff2cc;strokeColor=#d6b656;" parent="1" vertex="1">
          <mxGeometry x="551" y="1669" width="110" height="80" as="geometry" />
        </mxCell>
        <mxCell id="3d1nBrbwUyjpSrx7yAmw-28" value="예식일 연기" style="rhombus;whiteSpace=wrap;html=1;fillColor=#fff2cc;strokeColor=#d6b656;" parent="1" vertex="1">
          <mxGeometry x="551" y="1809" width="110" height="80" as="geometry" />
        </mxCell>
        <mxCell id="3d1nBrbwUyjpSrx7yAmw-29" value="" style="endArrow=classic;html=1;rounded=0;" parent="1" edge="1">
          <mxGeometry width="50" height="50" relative="1" as="geometry">
            <mxPoint x="605.5" y="597" as="sourcePoint" />
            <mxPoint x="606" y="667" as="targetPoint" />
          </mxGeometry>
        </mxCell>
        <mxCell id="3d1nBrbwUyjpSrx7yAmw-30" value="YES" style="endArrow=classic;html=1;rounded=0;entryX=0.5;entryY=0;entryDx=0;entryDy=0;" parent="1" edge="1">
          <mxGeometry width="50" height="50" relative="1" as="geometry">
            <mxPoint x="605.5" y="759" as="sourcePoint" />
            <mxPoint x="606" y="813" as="targetPoint" />
          </mxGeometry>
        </mxCell>
        <mxCell id="3d1nBrbwUyjpSrx7yAmw-32" value="" style="endArrow=classic;html=1;rounded=0;" parent="1" edge="1">
          <mxGeometry width="50" height="50" relative="1" as="geometry">
            <mxPoint x="662" y="719" as="sourcePoint" />
            <mxPoint x="662" y="847" as="targetPoint" />
            <Array as="points">
              <mxPoint x="762" y="719" />
              <mxPoint x="762" y="847" />
            </Array>
          </mxGeometry>
        </mxCell>
        <mxCell id="3d1nBrbwUyjpSrx7yAmw-33" value="No" style="edgeLabel;html=1;align=center;verticalAlign=middle;resizable=0;points=[];" parent="3d1nBrbwUyjpSrx7yAmw-32" vertex="1" connectable="0">
          <mxGeometry x="-0.7195" y="1" relative="1" as="geometry">
            <mxPoint as="offset" />
          </mxGeometry>
        </mxCell>
        <mxCell id="3d1nBrbwUyjpSrx7yAmw-36" value="" style="endArrow=classic;html=1;rounded=0;" parent="1" edge="1">
          <mxGeometry width="50" height="50" relative="1" as="geometry">
            <mxPoint x="661" y="861" as="sourcePoint" />
            <mxPoint x="661" y="989" as="targetPoint" />
            <Array as="points">
              <mxPoint x="761" y="861" />
              <mxPoint x="761" y="989" />
            </Array>
          </mxGeometry>
        </mxCell>
        <mxCell id="3d1nBrbwUyjpSrx7yAmw-37" value="No" style="edgeLabel;html=1;align=center;verticalAlign=middle;resizable=0;points=[];" parent="3d1nBrbwUyjpSrx7yAmw-36" vertex="1" connectable="0">
          <mxGeometry x="-0.7195" y="1" relative="1" as="geometry">
            <mxPoint as="offset" />
          </mxGeometry>
        </mxCell>
        <mxCell id="3d1nBrbwUyjpSrx7yAmw-38" value="" style="endArrow=classic;html=1;rounded=0;" parent="1" edge="1">
          <mxGeometry width="50" height="50" relative="1" as="geometry">
            <mxPoint x="661" y="1007" as="sourcePoint" />
            <mxPoint x="661" y="1135" as="targetPoint" />
            <Array as="points">
              <mxPoint x="761" y="1007" />
              <mxPoint x="761" y="1135" />
            </Array>
          </mxGeometry>
        </mxCell>
        <mxCell id="3d1nBrbwUyjpSrx7yAmw-39" value="No" style="edgeLabel;html=1;align=center;verticalAlign=middle;resizable=0;points=[];" parent="3d1nBrbwUyjpSrx7yAmw-38" vertex="1" connectable="0">
          <mxGeometry x="-0.7195" y="1" relative="1" as="geometry">
            <mxPoint as="offset" />
          </mxGeometry>
        </mxCell>
        <mxCell id="3d1nBrbwUyjpSrx7yAmw-40" value="" style="endArrow=classic;html=1;rounded=0;" parent="1" edge="1">
          <mxGeometry width="50" height="50" relative="1" as="geometry">
            <mxPoint x="661" y="1149" as="sourcePoint" />
            <mxPoint x="661" y="1277" as="targetPoint" />
            <Array as="points">
              <mxPoint x="761" y="1149" />
              <mxPoint x="761" y="1277" />
            </Array>
          </mxGeometry>
        </mxCell>
        <mxCell id="3d1nBrbwUyjpSrx7yAmw-41" value="No" style="edgeLabel;html=1;align=center;verticalAlign=middle;resizable=0;points=[];" parent="3d1nBrbwUyjpSrx7yAmw-40" vertex="1" connectable="0">
          <mxGeometry x="-0.7195" y="1" relative="1" as="geometry">
            <mxPoint as="offset" />
          </mxGeometry>
        </mxCell>
        <mxCell id="3d1nBrbwUyjpSrx7yAmw-42" value="" style="endArrow=classic;html=1;rounded=0;" parent="1" edge="1">
          <mxGeometry width="50" height="50" relative="1" as="geometry">
            <mxPoint x="661" y="1289" as="sourcePoint" />
            <mxPoint x="661" y="1417" as="targetPoint" />
            <Array as="points">
              <mxPoint x="761" y="1289" />
              <mxPoint x="761" y="1417" />
            </Array>
          </mxGeometry>
        </mxCell>
        <mxCell id="3d1nBrbwUyjpSrx7yAmw-43" value="No" style="edgeLabel;html=1;align=center;verticalAlign=middle;resizable=0;points=[];" parent="3d1nBrbwUyjpSrx7yAmw-42" vertex="1" connectable="0">
          <mxGeometry x="-0.7195" y="1" relative="1" as="geometry">
            <mxPoint as="offset" />
          </mxGeometry>
        </mxCell>
        <mxCell id="3d1nBrbwUyjpSrx7yAmw-44" value="" style="endArrow=classic;html=1;rounded=0;" parent="1" edge="1">
          <mxGeometry width="50" height="50" relative="1" as="geometry">
            <mxPoint x="660" y="1428" as="sourcePoint" />
            <mxPoint x="660" y="1556" as="targetPoint" />
            <Array as="points">
              <mxPoint x="760" y="1428" />
              <mxPoint x="760" y="1556" />
            </Array>
          </mxGeometry>
        </mxCell>
        <mxCell id="3d1nBrbwUyjpSrx7yAmw-45" value="No" style="edgeLabel;html=1;align=center;verticalAlign=middle;resizable=0;points=[];" parent="3d1nBrbwUyjpSrx7yAmw-44" vertex="1" connectable="0">
          <mxGeometry x="-0.7195" y="1" relative="1" as="geometry">
            <mxPoint as="offset" />
          </mxGeometry>
        </mxCell>
        <mxCell id="3d1nBrbwUyjpSrx7yAmw-46" value="" style="endArrow=classic;html=1;rounded=0;" parent="1" edge="1">
          <mxGeometry width="50" height="50" relative="1" as="geometry">
            <mxPoint x="661" y="1568" as="sourcePoint" />
            <mxPoint x="661" y="1696" as="targetPoint" />
            <Array as="points">
              <mxPoint x="761" y="1568" />
              <mxPoint x="761" y="1696" />
            </Array>
          </mxGeometry>
        </mxCell>
        <mxCell id="3d1nBrbwUyjpSrx7yAmw-47" value="No" style="edgeLabel;html=1;align=center;verticalAlign=middle;resizable=0;points=[];" parent="3d1nBrbwUyjpSrx7yAmw-46" vertex="1" connectable="0">
          <mxGeometry x="-0.7195" y="1" relative="1" as="geometry">
            <mxPoint as="offset" />
          </mxGeometry>
        </mxCell>
        <mxCell id="3d1nBrbwUyjpSrx7yAmw-48" value="" style="endArrow=classic;html=1;rounded=0;" parent="1" edge="1">
          <mxGeometry width="50" height="50" relative="1" as="geometry">
            <mxPoint x="662" y="1709" as="sourcePoint" />
            <mxPoint x="662" y="1837" as="targetPoint" />
            <Array as="points">
              <mxPoint x="762" y="1709" />
              <mxPoint x="762" y="1837" />
            </Array>
          </mxGeometry>
        </mxCell>
        <mxCell id="3d1nBrbwUyjpSrx7yAmw-49" value="No" style="edgeLabel;html=1;align=center;verticalAlign=middle;resizable=0;points=[];" parent="3d1nBrbwUyjpSrx7yAmw-48" vertex="1" connectable="0">
          <mxGeometry x="-0.7195" y="1" relative="1" as="geometry">
            <mxPoint as="offset" />
          </mxGeometry>
        </mxCell>
        <mxCell id="3d1nBrbwUyjpSrx7yAmw-50" value="YES" style="endArrow=classic;html=1;rounded=0;entryX=0.5;entryY=0;entryDx=0;entryDy=0;" parent="1" edge="1">
          <mxGeometry width="50" height="50" relative="1" as="geometry">
            <mxPoint x="605.5" y="901" as="sourcePoint" />
            <mxPoint x="606" y="955" as="targetPoint" />
          </mxGeometry>
        </mxCell>
        <mxCell id="3d1nBrbwUyjpSrx7yAmw-51" value="YES" style="endArrow=classic;html=1;rounded=0;entryX=0.5;entryY=0;entryDx=0;entryDy=0;" parent="1" edge="1">
          <mxGeometry width="50" height="50" relative="1" as="geometry">
            <mxPoint x="605.5" y="1048" as="sourcePoint" />
            <mxPoint x="606" y="1102" as="targetPoint" />
          </mxGeometry>
        </mxCell>
        <mxCell id="3d1nBrbwUyjpSrx7yAmw-52" value="YES" style="endArrow=classic;html=1;rounded=0;entryX=0.5;entryY=0;entryDx=0;entryDy=0;" parent="1" edge="1">
          <mxGeometry width="50" height="50" relative="1" as="geometry">
            <mxPoint x="605.5" y="1189" as="sourcePoint" />
            <mxPoint x="606" y="1243" as="targetPoint" />
          </mxGeometry>
        </mxCell>
        <mxCell id="3d1nBrbwUyjpSrx7yAmw-53" value="YES" style="endArrow=classic;html=1;rounded=0;entryX=0.5;entryY=0;entryDx=0;entryDy=0;" parent="1" edge="1">
          <mxGeometry width="50" height="50" relative="1" as="geometry">
            <mxPoint x="605.5" y="1330" as="sourcePoint" />
            <mxPoint x="606" y="1384" as="targetPoint" />
          </mxGeometry>
        </mxCell>
        <mxCell id="3d1nBrbwUyjpSrx7yAmw-54" value="YES" style="endArrow=classic;html=1;rounded=0;entryX=0.5;entryY=0;entryDx=0;entryDy=0;" parent="1" edge="1">
          <mxGeometry width="50" height="50" relative="1" as="geometry">
            <mxPoint x="605.5" y="1469" as="sourcePoint" />
            <mxPoint x="606" y="1523" as="targetPoint" />
          </mxGeometry>
        </mxCell>
        <mxCell id="3d1nBrbwUyjpSrx7yAmw-55" value="YES" style="endArrow=classic;html=1;rounded=0;entryX=0.5;entryY=0;entryDx=0;entryDy=0;" parent="1" edge="1">
          <mxGeometry width="50" height="50" relative="1" as="geometry">
            <mxPoint x="605.5" y="1608" as="sourcePoint" />
            <mxPoint x="606" y="1662" as="targetPoint" />
          </mxGeometry>
        </mxCell>
        <mxCell id="3d1nBrbwUyjpSrx7yAmw-56" value="YES" style="endArrow=classic;html=1;rounded=0;entryX=0.5;entryY=0;entryDx=0;entryDy=0;" parent="1" edge="1">
          <mxGeometry width="50" height="50" relative="1" as="geometry">
            <mxPoint x="605.5" y="1749" as="sourcePoint" />
            <mxPoint x="606" y="1803" as="targetPoint" />
          </mxGeometry>
        </mxCell>
        <mxCell id="3d1nBrbwUyjpSrx7yAmw-57" value="" style="endArrow=classic;html=1;rounded=0;" parent="1" edge="1">
          <mxGeometry width="50" height="50" relative="1" as="geometry">
            <mxPoint x="661" y="1848" as="sourcePoint" />
            <mxPoint x="680" y="1976" as="targetPoint" />
            <Array as="points">
              <mxPoint x="761" y="1848" />
              <mxPoint x="761" y="1976" />
            </Array>
          </mxGeometry>
        </mxCell>
        <mxCell id="3d1nBrbwUyjpSrx7yAmw-58" value="No" style="edgeLabel;html=1;align=center;verticalAlign=middle;resizable=0;points=[];" parent="3d1nBrbwUyjpSrx7yAmw-57" vertex="1" connectable="0">
          <mxGeometry x="-0.7195" y="1" relative="1" as="geometry">
            <mxPoint as="offset" />
          </mxGeometry>
        </mxCell>
        <mxCell id="3d1nBrbwUyjpSrx7yAmw-59" value="YES" style="endArrow=classic;html=1;rounded=0;" parent="1" edge="1">
          <mxGeometry width="50" height="50" relative="1" as="geometry">
            <mxPoint x="605.5" y="1889" as="sourcePoint" />
            <mxPoint x="606" y="1947" as="targetPoint" />
          </mxGeometry>
        </mxCell>
        <mxCell id="3d1nBrbwUyjpSrx7yAmw-61" value="완료하기&lt;br&gt;(모바일 청첩장 제작)" style="rounded=0;whiteSpace=wrap;html=1;fillColor=#FFCCE6;strokeColor=#b85450;" parent="1" vertex="1">
          <mxGeometry x="546" y="1957" width="120" height="60" as="geometry" />
        </mxCell>
        <mxCell id="3d1nBrbwUyjpSrx7yAmw-62" value="청첩장 공유&amp;nbsp;&lt;br&gt;(카카오 전송 등)" style="rounded=0;whiteSpace=wrap;html=1;fillColor=#FFCCE6;strokeColor=#b85450;" parent="1" vertex="1">
          <mxGeometry x="546" y="2082" width="120" height="60" as="geometry" />
        </mxCell>
        <mxCell id="3d1nBrbwUyjpSrx7yAmw-63" value="모바일 청첩장 스크린샷 생성/ 확인" style="rounded=0;whiteSpace=wrap;html=1;fillColor=#ffe6cc;strokeColor=#d79b00;" parent="1" vertex="1">
          <mxGeometry x="920" y="2097" width="220" height="30" as="geometry" />
        </mxCell>
        <mxCell id="3d1nBrbwUyjpSrx7yAmw-64" value="설정완료&lt;br&gt;(청첩장 수정)" style="rhombus;whiteSpace=wrap;html=1;fillColor=#FFCCE6;strokeColor=#b85450;" parent="1" vertex="1">
          <mxGeometry x="543.5" y="2231" width="125" height="80" as="geometry" />
        </mxCell>
        <mxCell id="3d1nBrbwUyjpSrx7yAmw-65" value="No" style="endArrow=classic;html=1;rounded=0;" parent="1" edge="1">
          <mxGeometry width="50" height="50" relative="1" as="geometry">
            <mxPoint x="606" y="2312" as="sourcePoint" />
            <mxPoint x="606" y="2380" as="targetPoint" />
          </mxGeometry>
        </mxCell>
        <mxCell id="3d1nBrbwUyjpSrx7yAmw-67" value="완료&lt;br&gt;하객 / 방문객 방문" style="rounded=1;whiteSpace=wrap;html=1;fillColor=#CC99FF;strokeColor=#9673a6;" parent="1" vertex="1">
          <mxGeometry x="546" y="2389" width="120" height="60" as="geometry" />
        </mxCell>
        <mxCell id="3d1nBrbwUyjpSrx7yAmw-68" value="" style="endArrow=classic;html=1;rounded=0;exitX=0;exitY=0.5;exitDx=0;exitDy=0;" parent="1" source="3d1nBrbwUyjpSrx7yAmw-64" edge="1">
          <mxGeometry width="50" height="50" relative="1" as="geometry">
            <mxPoint x="281" y="2150" as="sourcePoint" />
            <mxPoint x="530" y="220" as="targetPoint" />
            <Array as="points">
              <mxPoint x="70" y="2271" />
              <mxPoint x="80" y="220" />
            </Array>
          </mxGeometry>
        </mxCell>
        <mxCell id="3d1nBrbwUyjpSrx7yAmw-69" value="&amp;nbsp; YES&amp;nbsp;" style="edgeLabel;html=1;align=center;verticalAlign=middle;resizable=0;points=[];" parent="3d1nBrbwUyjpSrx7yAmw-68" vertex="1" connectable="0">
          <mxGeometry x="-0.8287" y="1" relative="1" as="geometry">
            <mxPoint as="offset" />
          </mxGeometry>
        </mxCell>
        <mxCell id="3d1nBrbwUyjpSrx7yAmw-70" value="" style="endArrow=classic;html=1;rounded=0;" parent="1" edge="1">
          <mxGeometry width="50" height="50" relative="1" as="geometry">
            <mxPoint x="605.5" y="100" as="sourcePoint" />
            <mxPoint x="606" y="180" as="targetPoint" />
          </mxGeometry>
        </mxCell>
        <mxCell id="3d1nBrbwUyjpSrx7yAmw-71" value="" style="endArrow=none;dashed=1;html=1;rounded=0;strokeColor=#cccccc;" parent="1" edge="1">
          <mxGeometry width="50" height="50" relative="1" as="geometry">
            <mxPoint x="680" y="2110.5" as="sourcePoint" />
            <mxPoint x="920" y="2111" as="targetPoint" />
          </mxGeometry>
        </mxCell>
        <mxCell id="3d1nBrbwUyjpSrx7yAmw-96" value="인사말 샘플&amp;nbsp;" style="rounded=0;whiteSpace=wrap;html=1;fillColor=#ffe6cc;strokeColor=#d79b00;" parent="1" vertex="1">
          <mxGeometry x="920" y="710" width="220" height="30" as="geometry" />
        </mxCell>
        <mxCell id="3d1nBrbwUyjpSrx7yAmw-97" value="" style="endArrow=none;dashed=1;html=1;rounded=0;strokeColor=#cccccc;" parent="1" edge="1">
          <mxGeometry width="50" height="50" relative="1" as="geometry">
            <mxPoint x="790" y="724.5" as="sourcePoint" />
            <mxPoint x="910" y="725" as="targetPoint" />
          </mxGeometry>
        </mxCell>
        <mxCell id="kJEBiMtAo49-GhS031TC-1" value="" style="endArrow=classic;html=1;rounded=0;" parent="1" edge="1">
          <mxGeometry width="50" height="50" relative="1" as="geometry">
            <mxPoint x="606" y="2018" as="sourcePoint" />
            <mxPoint x="606" y="2070" as="targetPoint" />
          </mxGeometry>
        </mxCell>
        <mxCell id="kJEBiMtAo49-GhS031TC-2" value="" style="endArrow=classic;html=1;rounded=0;" parent="1" edge="1">
          <mxGeometry width="50" height="50" relative="1" as="geometry">
            <mxPoint x="605.9999999999998" y="2141.9999999999995" as="sourcePoint" />
            <mxPoint x="606" y="2220" as="targetPoint" />
          </mxGeometry>
        </mxCell>
        <mxCell id="kJEBiMtAo49-GhS031TC-24" value="모바일 청첨장 결제전 체험 가능 여부 비교" style="swimlane;childLayout=stackLayout;resizeParent=1;resizeParentMax=0;startSize=20;" parent="1" vertex="1">
          <mxGeometry x="770" y="2236" width="370" height="211" as="geometry" />
        </mxCell>
        <mxCell id="kJEBiMtAo49-GhS031TC-25" value="내용" style="swimlane;startSize=20;" parent="kJEBiMtAo49-GhS031TC-24" vertex="1">
          <mxGeometry y="20" width="110" height="191" as="geometry" />
        </mxCell>
        <mxCell id="kJEBiMtAo49-GhS031TC-41" value="템플릿 체험" style="whiteSpace=wrap;html=1;" parent="kJEBiMtAo49-GhS031TC-25" vertex="1">
          <mxGeometry y="55" width="110" height="35" as="geometry" />
        </mxCell>
        <mxCell id="kJEBiMtAo49-GhS031TC-46" value="결제 전 &lt;br&gt;청첩창 링크 생성" style="whiteSpace=wrap;html=1;" parent="kJEBiMtAo49-GhS031TC-25" vertex="1">
          <mxGeometry y="87" width="110" height="35" as="geometry" />
        </mxCell>
        <mxCell id="kJEBiMtAo49-GhS031TC-63" value="내용 구성 변경" style="whiteSpace=wrap;html=1;" parent="kJEBiMtAo49-GhS031TC-25" vertex="1">
          <mxGeometry y="122" width="110" height="35" as="geometry" />
        </mxCell>
        <mxCell id="kJEBiMtAo49-GhS031TC-68" value="자체 템플릿 여부" style="whiteSpace=wrap;html=1;" parent="kJEBiMtAo49-GhS031TC-25" vertex="1">
          <mxGeometry y="156" width="110" height="35" as="geometry" />
        </mxCell>
        <mxCell id="K7bSYZE1TuhJOQHtHO02-144" value="디자인 미리보기" style="whiteSpace=wrap;html=1;" vertex="1" parent="kJEBiMtAo49-GhS031TC-25">
          <mxGeometry y="20" width="110" height="35" as="geometry" />
        </mxCell>
        <mxCell id="kJEBiMtAo49-GhS031TC-36" value="보자기카드" style="swimlane;startSize=20;" parent="kJEBiMtAo49-GhS031TC-24" vertex="1">
          <mxGeometry x="110" y="20" width="80" height="191" as="geometry" />
        </mxCell>
        <mxCell id="K7bSYZE1TuhJOQHtHO02-151" value="" style="edgeStyle=orthogonalEdgeStyle;rounded=0;orthogonalLoop=1;jettySize=auto;html=1;" edge="1" parent="kJEBiMtAo49-GhS031TC-36" source="kJEBiMtAo49-GhS031TC-42" target="K7bSYZE1TuhJOQHtHO02-145">
          <mxGeometry relative="1" as="geometry" />
        </mxCell>
        <mxCell id="kJEBiMtAo49-GhS031TC-42" value="&lt;font color=&quot;#ff0000&quot;&gt;O&lt;/font&gt;" style="whiteSpace=wrap;html=1;" parent="kJEBiMtAo49-GhS031TC-36" vertex="1">
          <mxGeometry y="55" width="80" height="35" as="geometry" />
        </mxCell>
        <mxCell id="kJEBiMtAo49-GhS031TC-59" value="&lt;font color=&quot;#ff0000&quot;&gt;O&lt;/font&gt;" style="whiteSpace=wrap;html=1;" parent="kJEBiMtAo49-GhS031TC-36" vertex="1">
          <mxGeometry y="87" width="80" height="35" as="geometry" />
        </mxCell>
        <mxCell id="kJEBiMtAo49-GhS031TC-64" value="&lt;font color=&quot;#ff0000&quot;&gt;O&lt;/font&gt;" style="whiteSpace=wrap;html=1;" parent="kJEBiMtAo49-GhS031TC-36" vertex="1">
          <mxGeometry y="122" width="80" height="35" as="geometry" />
        </mxCell>
        <mxCell id="kJEBiMtAo49-GhS031TC-69" value="&lt;font color=&quot;#ff0000&quot;&gt;O&lt;/font&gt;" style="whiteSpace=wrap;html=1;" parent="kJEBiMtAo49-GhS031TC-36" vertex="1">
          <mxGeometry y="156" width="80" height="35" as="geometry" />
        </mxCell>
        <mxCell id="K7bSYZE1TuhJOQHtHO02-145" value="&lt;font color=&quot;#ff0000&quot;&gt;O&lt;/font&gt;" style="whiteSpace=wrap;html=1;" vertex="1" parent="kJEBiMtAo49-GhS031TC-36">
          <mxGeometry y="20" width="80" height="35" as="geometry" />
        </mxCell>
        <mxCell id="kJEBiMtAo49-GhS031TC-26" value="C 사" style="swimlane;startSize=20;" parent="kJEBiMtAo49-GhS031TC-24" vertex="1">
          <mxGeometry x="190" y="20" width="60" height="191" as="geometry" />
        </mxCell>
        <mxCell id="kJEBiMtAo49-GhS031TC-43" value="X" style="whiteSpace=wrap;html=1;" parent="kJEBiMtAo49-GhS031TC-26" vertex="1">
          <mxGeometry y="55" width="60" height="35" as="geometry" />
        </mxCell>
        <mxCell id="kJEBiMtAo49-GhS031TC-60" value="X" style="whiteSpace=wrap;html=1;" parent="kJEBiMtAo49-GhS031TC-26" vertex="1">
          <mxGeometry y="87" width="60" height="35" as="geometry" />
        </mxCell>
        <mxCell id="kJEBiMtAo49-GhS031TC-65" value="X" style="whiteSpace=wrap;html=1;" parent="kJEBiMtAo49-GhS031TC-26" vertex="1">
          <mxGeometry y="122" width="60" height="35" as="geometry" />
        </mxCell>
        <mxCell id="kJEBiMtAo49-GhS031TC-70" value="X" style="whiteSpace=wrap;html=1;" parent="kJEBiMtAo49-GhS031TC-26" vertex="1">
          <mxGeometry y="156" width="60" height="35" as="geometry" />
        </mxCell>
        <mxCell id="K7bSYZE1TuhJOQHtHO02-146" value="&lt;font color=&quot;#ff0000&quot;&gt;O&lt;/font&gt;" style="whiteSpace=wrap;html=1;" vertex="1" parent="kJEBiMtAo49-GhS031TC-26">
          <mxGeometry y="20" width="60" height="35" as="geometry" />
        </mxCell>
        <mxCell id="kJEBiMtAo49-GhS031TC-27" value="B사" style="swimlane;startSize=20;" parent="kJEBiMtAo49-GhS031TC-24" vertex="1">
          <mxGeometry x="250" y="20" width="60" height="191" as="geometry" />
        </mxCell>
        <mxCell id="kJEBiMtAo49-GhS031TC-44" value="X" style="whiteSpace=wrap;html=1;" parent="kJEBiMtAo49-GhS031TC-27" vertex="1">
          <mxGeometry y="55" width="60" height="35" as="geometry" />
        </mxCell>
        <mxCell id="kJEBiMtAo49-GhS031TC-61" value="X" style="whiteSpace=wrap;html=1;" parent="kJEBiMtAo49-GhS031TC-27" vertex="1">
          <mxGeometry y="87" width="60" height="35" as="geometry" />
        </mxCell>
        <mxCell id="kJEBiMtAo49-GhS031TC-66" value="X" style="whiteSpace=wrap;html=1;" parent="kJEBiMtAo49-GhS031TC-27" vertex="1">
          <mxGeometry y="122" width="60" height="35" as="geometry" />
        </mxCell>
        <mxCell id="kJEBiMtAo49-GhS031TC-71" value="&lt;font color=&quot;#ff0000&quot;&gt;O&lt;/font&gt;" style="whiteSpace=wrap;html=1;" parent="kJEBiMtAo49-GhS031TC-27" vertex="1">
          <mxGeometry y="156" width="60" height="35" as="geometry" />
        </mxCell>
        <mxCell id="K7bSYZE1TuhJOQHtHO02-147" value="&lt;font color=&quot;#ff0000&quot;&gt;O&lt;/font&gt;" style="whiteSpace=wrap;html=1;" vertex="1" parent="kJEBiMtAo49-GhS031TC-27">
          <mxGeometry y="20" width="60" height="35" as="geometry" />
        </mxCell>
        <mxCell id="kJEBiMtAo49-GhS031TC-28" value="M사" style="swimlane;startSize=20;" parent="kJEBiMtAo49-GhS031TC-24" vertex="1">
          <mxGeometry x="310" y="20" width="60" height="191" as="geometry">
            <mxRectangle x="360" y="20" width="30" height="460" as="alternateBounds" />
          </mxGeometry>
        </mxCell>
        <mxCell id="kJEBiMtAo49-GhS031TC-45" value="&lt;font color=&quot;#ff0000&quot;&gt;O&lt;/font&gt;" style="whiteSpace=wrap;html=1;" parent="kJEBiMtAo49-GhS031TC-28" vertex="1">
          <mxGeometry y="55" width="60" height="35" as="geometry" />
        </mxCell>
        <mxCell id="kJEBiMtAo49-GhS031TC-62" value="X" style="whiteSpace=wrap;html=1;" parent="kJEBiMtAo49-GhS031TC-28" vertex="1">
          <mxGeometry y="87" width="60" height="35" as="geometry" />
        </mxCell>
        <mxCell id="kJEBiMtAo49-GhS031TC-67" value="X" style="whiteSpace=wrap;html=1;" parent="kJEBiMtAo49-GhS031TC-28" vertex="1">
          <mxGeometry y="122" width="60" height="35" as="geometry" />
        </mxCell>
        <mxCell id="kJEBiMtAo49-GhS031TC-72" value="X" style="whiteSpace=wrap;html=1;" parent="kJEBiMtAo49-GhS031TC-28" vertex="1">
          <mxGeometry y="156" width="60" height="35" as="geometry" />
        </mxCell>
        <mxCell id="K7bSYZE1TuhJOQHtHO02-148" value="&lt;font color=&quot;#ff0000&quot;&gt;O&lt;/font&gt;" style="whiteSpace=wrap;html=1;" vertex="1" parent="kJEBiMtAo49-GhS031TC-28">
          <mxGeometry y="20" width="60" height="35" as="geometry" />
        </mxCell>
        <mxCell id="kJEBiMtAo49-GhS031TC-4" value="설정시 연기 알림 공지 이미지 생성 (코로나)" style="rounded=0;whiteSpace=wrap;html=1;fillColor=#ffe6cc;strokeColor=#d79b00;" parent="1" vertex="1">
          <mxGeometry x="920" y="1830" width="220" height="30" as="geometry" />
        </mxCell>
        <mxCell id="kJEBiMtAo49-GhS031TC-5" value="" style="endArrow=none;dashed=1;html=1;rounded=0;strokeColor=#cccccc;" parent="1" edge="1">
          <mxGeometry width="50" height="50" relative="1" as="geometry">
            <mxPoint x="790" y="1844.5" as="sourcePoint" />
            <mxPoint x="910" y="1845" as="targetPoint" />
          </mxGeometry>
        </mxCell>
        <mxCell id="3d1nBrbwUyjpSrx7yAmw-119" value="축의금계좌 등록&lt;br&gt;(신랑,신부, 양가 부모 가능)" style="rounded=0;whiteSpace=wrap;html=1;fillColor=#ffe6cc;strokeColor=#d79b00;" parent="1" vertex="1">
          <mxGeometry x="920" y="1555" width="220" height="40" as="geometry" />
        </mxCell>
        <mxCell id="3d1nBrbwUyjpSrx7yAmw-120" value="" style="endArrow=none;dashed=1;html=1;rounded=0;strokeColor=#cccccc;" parent="1" edge="1">
          <mxGeometry width="50" height="50" relative="1" as="geometry">
            <mxPoint x="790" y="1569.5" as="sourcePoint" />
            <mxPoint x="910" y="1570" as="targetPoint" />
          </mxGeometry>
        </mxCell>
        <mxCell id="3d1nBrbwUyjpSrx7yAmw-116" value="알림사항(대절버스, 피로연, 계좌번호 등)" style="rounded=0;whiteSpace=wrap;html=1;fillColor=#ffe6cc;strokeColor=#d79b00;" parent="1" vertex="1">
          <mxGeometry x="920" y="1420" width="220" height="30" as="geometry" />
        </mxCell>
        <mxCell id="3d1nBrbwUyjpSrx7yAmw-117" value="" style="endArrow=none;dashed=1;html=1;rounded=0;strokeColor=#cccccc;" parent="1" edge="1">
          <mxGeometry width="50" height="50" relative="1" as="geometry">
            <mxPoint x="790" y="1434.5" as="sourcePoint" />
            <mxPoint x="910" y="1435" as="targetPoint" />
          </mxGeometry>
        </mxCell>
        <mxCell id="3d1nBrbwUyjpSrx7yAmw-112" value="네비 사용여부 선택&lt;br&gt;(티맵, 아틀란, 네이버, 카카오 지원)" style="rounded=0;whiteSpace=wrap;html=1;fillColor=#ffe6cc;strokeColor=#d79b00;" parent="1" vertex="1">
          <mxGeometry x="920" y="1280" width="220" height="40" as="geometry" />
        </mxCell>
        <mxCell id="3d1nBrbwUyjpSrx7yAmw-113" value="" style="endArrow=none;dashed=1;html=1;rounded=0;strokeColor=#cccccc;" parent="1" edge="1">
          <mxGeometry width="50" height="50" relative="1" as="geometry">
            <mxPoint x="790" y="1294.5" as="sourcePoint" />
            <mxPoint x="910" y="1295" as="targetPoint" />
          </mxGeometry>
        </mxCell>
        <mxCell id="3d1nBrbwUyjpSrx7yAmw-109" value="&amp;nbsp; 약도첨부 - 보자기 제작 약도(무료)&lt;br&gt;&amp;nbsp; &amp;nbsp; &amp;nbsp; &amp;nbsp; &amp;nbsp; &amp;nbsp; &amp;nbsp; &amp;nbsp; &amp;nbsp;온라인 지도 표시&lt;br&gt;&amp;nbsp; &amp;nbsp; &amp;nbsp; &amp;nbsp; &amp;nbsp; &amp;nbsp; &amp;nbsp; &amp;nbsp; &amp;nbsp;직접 약도 이미지 업로드" style="rounded=0;whiteSpace=wrap;html=1;fillColor=#ffe6cc;strokeColor=#d79b00;align=left;" parent="1" vertex="1">
          <mxGeometry x="920" y="1130" width="220" height="80" as="geometry" />
        </mxCell>
        <mxCell id="3d1nBrbwUyjpSrx7yAmw-110" value="" style="endArrow=none;dashed=1;html=1;rounded=0;strokeColor=#cccccc;" parent="1" edge="1">
          <mxGeometry width="50" height="50" relative="1" as="geometry">
            <mxPoint x="803" y="1144.5" as="sourcePoint" />
            <mxPoint x="918.5428571428572" y="1145" as="targetPoint" />
          </mxGeometry>
        </mxCell>
        <mxCell id="K7bSYZE1TuhJOQHtHO02-122" value="초대영상 / 직접 제작한 영상 선택 업로드 가능" style="rounded=0;whiteSpace=wrap;html=1;fillColor=#ffe6cc;strokeColor=#d79b00;" vertex="1" parent="1">
          <mxGeometry x="920" y="889" width="220" height="30" as="geometry" />
        </mxCell>
        <mxCell id="K7bSYZE1TuhJOQHtHO02-123" value="" style="endArrow=none;dashed=1;html=1;rounded=0;strokeColor=#cccccc;" edge="1" parent="1">
          <mxGeometry width="50" height="50" relative="1" as="geometry">
            <mxPoint x="790" y="903.5" as="sourcePoint" />
            <mxPoint x="910" y="904" as="targetPoint" />
          </mxGeometry>
        </mxCell>
        <mxCell id="3d1nBrbwUyjpSrx7yAmw-100" value="주문한 모바일영상 / 식전영상 연동" style="rounded=0;whiteSpace=wrap;html=1;fillColor=#ffe6cc;strokeColor=#d79b00;" parent="1" vertex="1">
          <mxGeometry x="920" y="850" width="220" height="30" as="geometry" />
        </mxCell>
        <mxCell id="3d1nBrbwUyjpSrx7yAmw-101" value="" style="endArrow=none;dashed=1;html=1;rounded=0;strokeColor=#cccccc;" parent="1" edge="1">
          <mxGeometry width="50" height="50" relative="1" as="geometry">
            <mxPoint x="790" y="864.5" as="sourcePoint" />
            <mxPoint x="910" y="865" as="targetPoint" />
          </mxGeometry>
        </mxCell>
        <mxCell id="3d1nBrbwUyjpSrx7yAmw-106" value="사진등록하기 / 댓글 허용여부 선택" style="rounded=0;whiteSpace=wrap;html=1;fillColor=#ffe6cc;strokeColor=#d79b00;" parent="1" vertex="1">
          <mxGeometry x="920" y="1000" width="220" height="30" as="geometry" />
        </mxCell>
        <mxCell id="3d1nBrbwUyjpSrx7yAmw-107" value="" style="endArrow=none;dashed=1;html=1;rounded=0;strokeColor=#cccccc;" parent="1" edge="1">
          <mxGeometry width="50" height="50" relative="1" as="geometry">
            <mxPoint x="790" y="1014.5" as="sourcePoint" />
            <mxPoint x="910" y="1015" as="targetPoint" />
          </mxGeometry>
        </mxCell>
        <mxCell id="K7bSYZE1TuhJOQHtHO02-124" value="" style="rounded=0;whiteSpace=wrap;html=1;fillColor=#FFCCE6;strokeColor=#b85450;" vertex="1" parent="1">
          <mxGeometry x="992" y="41" width="60" height="30" as="geometry" />
        </mxCell>
        <mxCell id="K7bSYZE1TuhJOQHtHO02-126" value="" style="rhombus;whiteSpace=wrap;html=1;fillColor=#fff2cc;strokeColor=#d6b656;" vertex="1" parent="1">
          <mxGeometry x="992" y="91" width="60" height="40" as="geometry" />
        </mxCell>
        <mxCell id="K7bSYZE1TuhJOQHtHO02-127" value="필수 기능" style="text;html=1;align=center;verticalAlign=middle;resizable=0;points=[];autosize=1;strokeColor=none;fillColor=none;" vertex="1" parent="1">
          <mxGeometry x="1067" y="46" width="60" height="20" as="geometry" />
        </mxCell>
        <mxCell id="K7bSYZE1TuhJOQHtHO02-128" value="선택 가능" style="text;html=1;align=center;verticalAlign=middle;resizable=0;points=[];autosize=1;strokeColor=none;fillColor=none;" vertex="1" parent="1">
          <mxGeometry x="1067" y="101" width="60" height="20" as="geometry" />
        </mxCell>
      </root>
    </mxGraphModel>
  </diagram>
</mxfile>
